<svg id="Layer_1" data-name="Layer 1" xmlns="http://www.w3.org/2000/svg" width="140" height="152.01" viewBox="0 0 140 152.01"><defs><style>.cls-1{fill:#fff;}.cls-2{fill:none;stroke:#fff;stroke-miterlimit:10;stroke-width:2px;}</style></defs><title>Adresse</title><path class="cls-1" d="M86,80v36H38V80H86m2-2H36v40H88V78Z"/><polyline class="cls-2" points="87 78.01 63.32 53.07 36 79.01"/><rect class="cls-2" x="55.5" y="96.51" width="13" height="20"/><circle class="cls-2" cx="61.5" cy="90.51" r="60.5"/><path class="cls-1" d="M39.51,15.44H36.68l-1.13-2.92H30.4l-1.06,2.92H26.58l5-12.88h2.75Zm-4.79-5.1L32.94,5.56,31.2,10.34Z"/><path class="cls-1" d="M49.43,15.44H47.14V14.07a3.71,3.71,0,0,1-1.35,1.19,3.47,3.47,0,0,1-1.57.39,3.58,3.58,0,0,1-2.76-1.29,5.31,5.31,0,0,1-1.14-3.62,5.25,5.25,0,0,1,1.11-3.61A3.66,3.66,0,0,1,44.25,5.9,3.48,3.48,0,0,1,47,7.2V2.56h2.47Zm-6.59-4.87a4.37,4.37,0,0,0,.41,2.17,1.88,1.88,0,0,0,1.67,1A1.82,1.82,0,0,0,46.37,13a3.36,3.36,0,0,0,.6-2.17,3.68,3.68,0,0,0-.58-2.32,1.83,1.83,0,0,0-1.48-.7,1.86,1.86,0,0,0-1.48.7A3.17,3.17,0,0,0,42.84,10.57Z"/><path class="cls-1" d="M54.23,15.44H51.76V6.11h2.29V7.44A4.11,4.11,0,0,1,55.11,6.2a2,2,0,0,1,1.07-.3,3.15,3.15,0,0,1,1.63.46L57,8.52a2.15,2.15,0,0,0-1.16-.41A1.39,1.39,0,0,0,55,8.4a1.88,1.88,0,0,0-.56,1,14.45,14.45,0,0,0-.21,3.13Z"/><path class="cls-1" d="M64.28,12.47l2.46.41A4.1,4.1,0,0,1,65.24,15a4.41,4.41,0,0,1-2.56.7,4.18,4.18,0,0,1-3.61-1.59,5.37,5.37,0,0,1-.92-3.21,5.16,5.16,0,0,1,1.21-3.64A4,4,0,0,1,62.43,5.9a4.16,4.16,0,0,1,3.29,1.37,6.14,6.14,0,0,1,1.15,4.22H60.68a2.53,2.53,0,0,0,.6,1.71,1.88,1.88,0,0,0,1.42.61,1.52,1.52,0,0,0,1-.32A2,2,0,0,0,64.28,12.47ZM64.42,10a2.38,2.38,0,0,0-.56-1.63,1.67,1.67,0,0,0-1.28-.56,1.71,1.71,0,0,0-1.34.59,2.25,2.25,0,0,0-.51,1.6Z"/><path class="cls-1" d="M68,12.78l2.48-.38a1.87,1.87,0,0,0,.64,1.1,2.24,2.24,0,0,0,1.36.37,2.51,2.51,0,0,0,1.44-.35.81.81,0,0,0,.32-.66.7.7,0,0,0-.17-.47,2.15,2.15,0,0,0-.83-.32,13.19,13.19,0,0,1-3.79-1.21,2.39,2.39,0,0,1-1.11-2.1,2.59,2.59,0,0,1,1-2,4.48,4.48,0,0,1,3-.82,5.24,5.24,0,0,1,2.85.62,3.18,3.18,0,0,1,1.28,1.85l-2.33.43A1.39,1.39,0,0,0,73.52,8a2.11,2.11,0,0,0-1.19-.29,2.6,2.6,0,0,0-1.4.28.56.56,0,0,0-.28.5.54.54,0,0,0,.24.44,9.19,9.19,0,0,0,2.31.7A6.78,6.78,0,0,1,76,10.69a2.29,2.29,0,0,1,.77,1.83,2.83,2.83,0,0,1-1.07,2.21,4.72,4.72,0,0,1-3.17.92,5.16,5.16,0,0,1-3-.77A3.57,3.57,0,0,1,68,12.78Z"/><path class="cls-1" d="M78,12.78l2.48-.38a1.87,1.87,0,0,0,.64,1.1,2.24,2.24,0,0,0,1.36.37,2.49,2.49,0,0,0,1.44-.35.81.81,0,0,0,.32-.66.7.7,0,0,0-.17-.47,2.15,2.15,0,0,0-.83-.32,13.19,13.19,0,0,1-3.79-1.21,2.38,2.38,0,0,1-1.1-2.1,2.58,2.58,0,0,1,.95-2,4.48,4.48,0,0,1,3-.82,5.24,5.24,0,0,1,2.85.62,3.18,3.18,0,0,1,1.28,1.85L84.1,8.8A1.45,1.45,0,0,0,83.53,8a2.11,2.11,0,0,0-1.19-.29,2.6,2.6,0,0,0-1.4.28.56.56,0,0,0-.28.5.53.53,0,0,0,.25.44,8.89,8.89,0,0,0,2.3.7A6.78,6.78,0,0,1,86,10.69a2.29,2.29,0,0,1,.77,1.83,2.83,2.83,0,0,1-1.07,2.21,4.72,4.72,0,0,1-3.17.92,5.16,5.16,0,0,1-3-.77A3.61,3.61,0,0,1,78,12.78Z"/><path class="cls-1" d="M94.31,12.47l2.46.41A4.1,4.1,0,0,1,95.27,15a4.41,4.41,0,0,1-2.56.7,4.16,4.16,0,0,1-3.6-1.59,5.3,5.3,0,0,1-.93-3.21A5.17,5.17,0,0,1,89.4,7.21,4,4,0,0,1,92.46,5.9a4.16,4.16,0,0,1,3.29,1.37,6.08,6.08,0,0,1,1.15,4.22H90.71a2.53,2.53,0,0,0,.6,1.71,1.9,1.9,0,0,0,1.43.61,1.51,1.51,0,0,0,1-.32A2,2,0,0,0,94.31,12.47ZM94.45,10a2.38,2.38,0,0,0-.55-1.63,1.78,1.78,0,0,0-2.62,0,2.21,2.21,0,0,0-.52,1.6Z"/></svg>