<svg id="Layer_1" data-name="Layer 1" xmlns="http://www.w3.org/2000/svg" width="181" height="209.56" viewBox="0 0 181 209.56"><defs><style>.cls-1,.cls-2{fill:#fff;}.cls-2{stroke:#000;stroke-miterlimit:10;stroke-width:4px;}</style></defs><title>Artboard 3</title><circle class="cls-1" cx="90.5" cy="119.06" r="88.5"/><path d="M90.5,32.56A86.5,86.5,0,1,1,4,119.06a86.59,86.59,0,0,1,86.5-86.5m0-4a90.5,90.5,0,1,0,90.5,90.5,90.5,90.5,0,0,0-90.5-90.5Z"/><polyline class="cls-2" points="50 104.56 93.87 61.57 136 104.56"/><rect class="cls-1" x="51" y="104.56" width="84" height="62"/><path d="M133,106.56v58H53v-58h80m4-4H49v66h88v-66Z"/><rect class="cls-2" x="83" y="127.56" width="20" height="38"/><path d="M69.7,17.16H66.55L65.3,13.91H59.58L58.4,17.16H55.33L60.91,2.84H64Zm-5.33-5.67-2-5.31-1.93,5.31Z"/><path d="M80.72,17.16H78.17V15.63A4,4,0,0,1,76.67,17a3.79,3.79,0,0,1-1.74.43A4,4,0,0,1,71.87,16a5.86,5.86,0,0,1-1.27-4,5.8,5.8,0,0,1,1.24-4A4,4,0,0,1,75,6.55,3.88,3.88,0,0,1,78,8V2.84h2.74ZM73.4,11.75a4.7,4.7,0,0,0,.46,2.4,2.06,2.06,0,0,0,1.85,1.07,2,2,0,0,0,1.61-.8A3.69,3.69,0,0,0,78,12a4,4,0,0,0-.65-2.57,2,2,0,0,0-1.65-.79,2,2,0,0,0-1.63.78A3.51,3.51,0,0,0,73.4,11.75Z"/><path d="M86.05,17.16H83.31V6.79h2.55V8.26A4.41,4.41,0,0,1,87,6.88a2.14,2.14,0,0,1,1.18-.33A3.53,3.53,0,0,1,90,7.07l-.85,2.39A2.39,2.39,0,0,0,87.89,9a1.56,1.56,0,0,0-1,.32,2.29,2.29,0,0,0-.63,1.15A16.48,16.48,0,0,0,86.05,14Z"/><path d="M97.22,13.86l2.73.46a4.55,4.55,0,0,1-1.66,2.29,4.93,4.93,0,0,1-2.85.78,4.63,4.63,0,0,1-4-1.77,5.87,5.87,0,0,1-1-3.57,5.73,5.73,0,0,1,1.35-4,4.45,4.45,0,0,1,3.41-1.46,4.6,4.6,0,0,1,3.65,1.53,6.77,6.77,0,0,1,1.28,4.68H93.22a2.73,2.73,0,0,0,.67,1.9,2,2,0,0,0,1.58.68A1.69,1.69,0,0,0,96.55,15,2.11,2.11,0,0,0,97.22,13.86Zm.15-2.78a2.66,2.66,0,0,0-.61-1.81,1.91,1.91,0,0,0-1.43-.62,1.89,1.89,0,0,0-1.48.66,2.51,2.51,0,0,0-.58,1.77Z"/><path d="M101.37,14.2l2.75-.42a2.1,2.1,0,0,0,.71,1.22,2.46,2.46,0,0,0,1.51.41,2.72,2.72,0,0,0,1.6-.39.87.87,0,0,0,.36-.73.69.69,0,0,0-.2-.52,2.13,2.13,0,0,0-.91-.36A14.87,14.87,0,0,1,103,12.07a2.67,2.67,0,0,1-1.23-2.33,2.87,2.87,0,0,1,1.06-2.27,5,5,0,0,1,3.3-.92,5.71,5.71,0,0,1,3.17.7A3.51,3.51,0,0,1,110.7,9.3l-2.59.48a1.56,1.56,0,0,0-.63-.93,2.24,2.24,0,0,0-1.32-.32,3,3,0,0,0-1.55.3.64.64,0,0,0-.31.55.6.6,0,0,0,.27.5,10.35,10.35,0,0,0,2.56.77,7.55,7.55,0,0,1,3.06,1.23,2.49,2.49,0,0,1,.86,2,3.12,3.12,0,0,1-1.19,2.45,5.28,5.28,0,0,1-3.52,1,5.75,5.75,0,0,1-3.36-.86A3.94,3.94,0,0,1,101.37,14.2Z"/><path d="M112.49,14.2l2.75-.42A2.06,2.06,0,0,0,116,15a2.43,2.43,0,0,0,1.5.41,2.72,2.72,0,0,0,1.6-.39.87.87,0,0,0,.36-.73.73.73,0,0,0-.19-.52,2.19,2.19,0,0,0-.92-.36,15,15,0,0,1-4.21-1.34,2.67,2.67,0,0,1-1.23-2.33,2.88,2.88,0,0,1,1.07-2.27,5,5,0,0,1,3.3-.92,5.67,5.67,0,0,1,3.16.7,3.52,3.52,0,0,1,1.43,2.05l-2.59.48a1.56,1.56,0,0,0-.63-.93,2.27,2.27,0,0,0-1.33-.32,3,3,0,0,0-1.55.3.64.64,0,0,0-.31.55.6.6,0,0,0,.27.5,10.34,10.34,0,0,0,2.57.77,7.62,7.62,0,0,1,3.06,1.23,2.52,2.52,0,0,1,.86,2A3.15,3.15,0,0,1,121,16.37a5.31,5.31,0,0,1-3.53,1,5.71,5.71,0,0,1-3.35-.86A3.91,3.91,0,0,1,112.49,14.2Z"/><path d="M130.59,13.86l2.73.46a4.51,4.51,0,0,1-1.67,2.29,4.88,4.88,0,0,1-2.84.78,4.65,4.65,0,0,1-4-1.77,5.94,5.94,0,0,1-1-3.57,5.73,5.73,0,0,1,1.35-4,4.43,4.43,0,0,1,3.4-1.46,4.62,4.62,0,0,1,3.66,1.53,6.77,6.77,0,0,1,1.28,4.68h-6.88a2.73,2.73,0,0,0,.67,1.9,2,2,0,0,0,1.58.68,1.69,1.69,0,0,0,1.08-.35A2.17,2.17,0,0,0,130.59,13.86Zm.15-2.78a2.66,2.66,0,0,0-.61-1.81,1.91,1.91,0,0,0-1.43-.62,1.89,1.89,0,0,0-1.48.66,2.51,2.51,0,0,0-.58,1.77Z"/></svg>