<svg id="Layer_1" data-name="Layer 1" xmlns="http://www.w3.org/2000/svg" width="140" height="152.01" viewBox="0 0 140 152.01"><defs><style>.cls-1{fill:#fff;}.cls-2{fill:none;stroke:#fff;stroke-miterlimit:10;stroke-width:2px;}</style></defs><title>Adresse_ny</title><path class="cls-1" d="M86,80v36H38V80H86m2-2H36v40H88V78Z"/><polyline class="cls-2" points="87 78.01 63.32 53.07 36 79.01"/><rect class="cls-2" x="55.5" y="96.51" width="13" height="20"/><circle class="cls-2" cx="61.5" cy="90.51" r="60.5"/><path class="cls-1" d="M42.39,15.35v.16H41l-.81-3.6h-5l-.79,3.6H32.92v-.14L35.84,2.68H39.4C40.36,6.91,41.4,11.14,42.39,15.35Zm-2.63-4.84L38.38,4h-1.5l-1.42,6.48Z"/><path class="cls-1" d="M50.19,2.55h1l.18.18V15.51H50.13L50,15.37v-.56l-1.1.69a5.22,5.22,0,0,1-1.44.19c-2.54,0-3.4-.95-3.4-3.33V9.19c0-2.12.9-3.25,3.4-3.25a8.8,8.8,0,0,1,1.26.14L50,6.66V2.75Zm-4.78,9.81c0,1.35.53,1.93,2,1.93,2.12,0,2.54-.41,2.54-2V9.32c0-1.76-.56-2-2.54-2-1.75,0-2,.67-2,1.93Z"/><path class="cls-1" d="M54,15.51V6.22l.14-.14h1.23l0,.63,1.13-.61a.79.79,0,0,1,.23,0h1.08v1.4H56.59c-1.15,0-1.19,0-1.19.53v7.36l-.12.14Z"/><path class="cls-1" d="M66.69,14.09V15a9,9,0,0,1-3.31.71c-2.13,0-3.53-.85-3.53-3.42v-3c0-2.52,1.44-3.38,3.53-3.38s3.55.84,3.55,3.38v2l-.18.15-5.5,0v.85c0,1.47.6,2,2.13,2a17.64,17.64,0,0,0,2.2-.18l1-.11ZM61.27,10.6l.6-.58H65.5V9.3c0-1.44-.43-2-2.12-2-1.32,0-2.11.19-2.13,2Z"/><path class="cls-1" d="M74.36,8.73l-.11-.11c0-1-.34-1.3-2-1.3s-1.88.74-1.88,1.37c0,.47.15.77,1,1,.38.11.83.2,2.51.66s2,1.32,2,2.36c0,2-.58,2.95-3.51,2.95-1.93,0-3.43-.61-3.52-2.88l.11-.1h1.23l.09.1c.14,1,.39,1.52,2.09,1.52,1.94,0,2.12-.29,2.12-1.59,0-.54-.23-1-1.1-1.19s-1.55-.41-2.34-.63c-1.44-.38-2-1-2-2.23C69,7.18,69.79,6,72.25,6s3.39.81,3.44,2.67l-.11.12Z"/><path class="cls-1" d="M83.16,8.73l-.11-.11c0-1-.34-1.3-2-1.3s-1.87.74-1.87,1.37c0,.47.14.77,1,1,.38.11.83.2,2.51.66s2,1.32,2,2.36c0,2-.58,2.95-3.51,2.95-1.93,0-3.42-.61-3.51-2.88l.11-.1h1.22l.09.1c.14,1,.4,1.52,2.09,1.52,1.94,0,2.12-.29,2.12-1.59,0-.54-.23-1-1.1-1.19s-1.54-.41-2.34-.63c-1.44-.38-2-1-2-2.23,0-1.51.83-2.74,3.29-2.74s3.39.81,3.44,2.67l-.11.12Z"/><path class="cls-1" d="M93.75,14.09V15a9.13,9.13,0,0,1-3.32.71c-2.12,0-3.53-.85-3.53-3.42v-3c0-2.52,1.44-3.38,3.53-3.38S94,6.76,94,9.3v2l-.18.15-5.49,0v.85c0,1.47.59,2,2.12,2a17.49,17.49,0,0,0,2.2-.18l1-.11ZM88.33,10.6l.59-.58h3.64V9.3c0-1.44-.44-2-2.13-2-1.31,0-2.1.19-2.12,2Z"/></svg>