<svg id="Layer_1" data-name="Layer 1" xmlns="http://www.w3.org/2000/svg" width="130.37" height="152.01" viewBox="0 0 130.37 152.01"><defs><style>.cls-1{fill:#fff;}.cls-2{fill:none;stroke:#fff;stroke-miterlimit:10;stroke-width:2px;}</style></defs><title>priser_ny</title><circle class="cls-1" cx="26" cy="79.01" r="1"/><circle class="cls-1" cx="26" cy="104.01" r="1"/><path class="cls-2" d="M24.5,84.17v14.5a11.25,11.25,0,0,1,8.7,4.84h58A7.9,7.9,0,0,1,98,98.67V84.17c-4.34-1.26-7.34-3.45-8.7-6.77H34.17A18.9,18.9,0,0,1,24.5,84.17Z"/><circle class="cls-1" cx="100" cy="79.01" r="1"/><circle class="cls-1" cx="101" cy="103.01" r="1"/><path class="cls-2" d="M69,101c0-6.08-3.13-11-7-11s-7,4.92-7,11"/><circle class="cls-2" cx="62" cy="86.01" r="4"/><line class="cls-2" x1="55" y1="100.01" x2="69" y2="100.01"/><path class="cls-1" d="M106,75v31H19V75h87m2-2H17v35h91V73Z"/><circle class="cls-2" cx="61.5" cy="90.51" r="60.5"/><path class="cls-1" d="M49.64,5.74V7.39a2.82,2.82,0,0,1-3,3.08H44.54L43.25,10v5.42l-.13.12h-1.3V2.8L42,2.68h4.57A2.84,2.84,0,0,1,49.64,5.74Zm-1.41,0A1.5,1.5,0,0,0,46.65,4.1h-3.4v5h3.43c.76,0,1.55-.25,1.55-1.69Z"/><path class="cls-1" d="M51.67,15.51V6.22l.14-.14H53v.63l1.14-.61a.79.79,0,0,1,.23,0H55.5v1.4H54.26c-1.15,0-1.19,0-1.19.53v7.36l-.12.14Z"/><path class="cls-1" d="M59.16,2.59V4.3L59,4.44h-1.4l-.15-.14V2.6l.16-.16H59ZM59,15.37l-.12.14H57.77l-.14-.14V6.22l.16-.16h1l.18.16Z"/><path class="cls-1" d="M67.31,8.73l-.11-.11c0-1-.34-1.3-2-1.3s-1.87.74-1.87,1.37c0,.47.14.77,1,1,.38.11.83.2,2.51.66s2,1.32,2,2.36c0,2-.58,2.95-3.51,2.95-1.93,0-3.42-.61-3.51-2.88l.11-.1h1.22l.09.1c.14,1,.4,1.52,2.09,1.52,1.94,0,2.12-.29,2.12-1.59,0-.54-.23-1-1.09-1.19s-1.55-.41-2.34-.63c-1.45-.38-2-1-2-2.23,0-1.51.83-2.74,3.3-2.74s3.38.81,3.43,2.67l-.1.12Z"/><path class="cls-1" d="M77.9,14.09V15a9.13,9.13,0,0,1-3.32.71c-2.12,0-3.53-.85-3.53-3.42v-3c0-2.52,1.44-3.38,3.53-3.38s3.55.84,3.55,3.38v2l-.18.15-5.49,0v.85c0,1.47.59,2,2.12,2a17.49,17.49,0,0,0,2.2-.18l1-.11ZM72.48,10.6l.59-.58h3.64V9.3c0-1.44-.43-2-2.13-2-1.31,0-2.1.19-2.12,2Z"/><path class="cls-1" d="M80.56,15.51V6.22l.14-.14h1.23v.63l1.14-.61a.79.79,0,0,1,.23,0h1.08v1.4H83.15C82,7.48,82,7.48,82,8v7.36l-.12.14Z"/></svg>