<svg id="Layer_1" data-name="Layer 1" xmlns="http://www.w3.org/2000/svg" width="181" height="211.41" viewBox="0 0 181 211.41"><defs><style>.cls-1,.cls-5{fill:#fff;}.cls-2,.cls-4{fill:#f9f7f7;}.cls-2,.cls-3,.cls-4,.cls-5,.cls-6{stroke:#000;stroke-miterlimit:10;}.cls-2,.cls-3{stroke-width:2px;}.cls-3,.cls-6{fill:none;}</style></defs><title>Artboard 2</title><circle class="cls-1" cx="90.5" cy="120.91" r="88.5"/><path d="M90.5,34.41A86.5,86.5,0,1,1,4,120.91a86.59,86.59,0,0,1,86.5-86.5m0-4a90.5,90.5,0,1,0,90.5,90.5,90.5,90.5,0,0,0-90.5-90.5Z"/><path d="M62,18.87V3.13h5.1a19.3,19.3,0,0,1,3.78.23A4.17,4.17,0,0,1,73.16,4.9,4.91,4.91,0,0,1,74.07,8a5.15,5.15,0,0,1-.53,2.44A4.23,4.23,0,0,1,72.21,12a4.51,4.51,0,0,1-1.65.75,18.32,18.32,0,0,1-3.3.22H65.19v5.94ZM65.19,5.79v4.47h1.74A8,8,0,0,0,69.44,10a2.06,2.06,0,0,0,1-.77A2.12,2.12,0,0,0,70.79,8a2,2,0,0,0-.5-1.41A2.15,2.15,0,0,0,69,5.9a15.39,15.39,0,0,0-2.29-.11Z"/><path d="M79.55,18.87h-3V7.47h2.8V9.09a5,5,0,0,1,1.3-1.52,2.4,2.4,0,0,1,1.3-.36,3.84,3.84,0,0,1,2,.57L83,10.41a2.66,2.66,0,0,0-1.42-.49,1.72,1.72,0,0,0-1.08.34,2.48,2.48,0,0,0-.69,1.27,17.83,17.83,0,0,0-.25,3.82Z"/><path d="M85.22,5.92V3.13h3V5.92Zm0,13V7.47h3v11.4Z"/><path d="M90.27,15.62l3-.46a2.23,2.23,0,0,0,.78,1.33,2.64,2.64,0,0,0,1.66.46,3,3,0,0,0,1.76-.43,1,1,0,0,0,.4-.8.81.81,0,0,0-.22-.57,2.3,2.3,0,0,0-1-.4A16.58,16.58,0,0,1,92,13.28a3,3,0,0,1-1.35-2.57,3.15,3.15,0,0,1,1.17-2.49,5.43,5.43,0,0,1,3.63-1A6.33,6.33,0,0,1,99,8a3.91,3.91,0,0,1,1.57,2.26l-2.85.52a1.77,1.77,0,0,0-.69-1,2.6,2.6,0,0,0-1.46-.35,3.27,3.27,0,0,0-1.7.33.72.72,0,0,0-.35.61.66.66,0,0,0,.3.55,11.48,11.48,0,0,0,2.82.85A8.34,8.34,0,0,1,100,13.06a2.81,2.81,0,0,1,1,2.25A3.45,3.45,0,0,1,99.62,18a5.78,5.78,0,0,1-3.88,1.13,6.34,6.34,0,0,1-3.69-.94A4.35,4.35,0,0,1,90.27,15.62Z"/><path d="M110.17,15.24l3,.51a4.89,4.89,0,0,1-1.83,2.52,5.42,5.42,0,0,1-3.13.86,5.11,5.11,0,0,1-4.4-1.94,6.48,6.48,0,0,1-1.13-3.93,6.31,6.31,0,0,1,1.48-4.45,4.89,4.89,0,0,1,3.75-1.6,5.07,5.07,0,0,1,4,1.68q1.47,1.68,1.4,5.15h-7.56a3.07,3.07,0,0,0,.73,2.09,2.29,2.29,0,0,0,1.74.75,1.83,1.83,0,0,0,1.19-.39A2.3,2.3,0,0,0,110.17,15.24Zm.18-3.05a2.89,2.89,0,0,0-.68-2,2.18,2.18,0,0,0-3.2,0,2.81,2.81,0,0,0-.64,1.95Z"/><path d="M118.69,18.87h-3V7.47h2.81V9.09a5,5,0,0,1,1.29-1.52,2.43,2.43,0,0,1,1.31-.36,3.84,3.84,0,0,1,2,.57l-.94,2.63a2.64,2.64,0,0,0-1.42-.49,1.67,1.67,0,0,0-1.07.34,2.34,2.34,0,0,0-.69,1.27,17.61,17.61,0,0,0-.26,3.82Z"/><rect class="cls-2" x="39" y="89.41" width="111" height="51"/><path class="cls-2" d="M49,104.41v17c5.84,2.29,10.23,5.67,12,11h69c1.54-4.51,4.86-7.18,9-9v-19c-6.06-1.47-10.28-4.3-12-9H60A22.17,22.17,0,0,1,49,104.41Z"/><path class="cls-3" d="M86.2,124.41c0-7,3.45-12.7,7.7-12.7s7.7,5.68,7.7,12.7"/><line class="cls-3" x1="86" y1="124.41" x2="102" y2="124.21"/><ellipse class="cls-2" cx="93.6" cy="106.46" rx="5.2" ry="5.24"/><ellipse class="cls-4" cx="47.52" cy="96.57" rx="2.12" ry="2.34"/><ellipse class="cls-4" cx="49.52" cy="131.57" rx="2.12" ry="2.34"/><ellipse class="cls-4" cx="138.52" cy="131.57" rx="2.12" ry="2.34"/><ellipse class="cls-4" cx="138.52" cy="96.57" rx="2.12" ry="2.34"/><ellipse class="cls-5" cx="63.09" cy="158.84" rx="8.84" ry="17.75" transform="translate(-102.48 201.28) rotate(-82.71)"/><path class="cls-6" d="M45.17,156.4c-1.26,3.47-2.06,6.72-.81,9,8.52,6.74,19.5,8.2,31.75,6.51,3-2.31,4.08-6.31,4.89-10.58"/><path class="cls-5" d="M70.16,149.9c-2.43,2.73-4.35,5.42-4,7.94,5.39,9.3,15,14.65,26.83,17.57,3.58-1,6.06-4.32,8.36-7.95"/><ellipse class="cls-5" cx="85.74" cy="158.68" rx="8.74" ry="17.56" transform="translate(-94.61 157.01) rotate(-61.08)"/></svg>