<svg id="Layer_1" data-name="Layer 1" xmlns="http://www.w3.org/2000/svg" width="130.37" height="152.01" viewBox="0 0 130.37 152.01"><defs><style>.cls-1{fill:#fff;}.cls-2{fill:none;stroke:#fff;stroke-miterlimit:10;stroke-width:2px;}</style></defs><title>priser</title><circle class="cls-1" cx="26" cy="79.01" r="1"/><circle class="cls-1" cx="26" cy="104.01" r="1"/><path class="cls-2" d="M24.5,84.17v14.5a11.25,11.25,0,0,1,8.7,4.84h58A7.9,7.9,0,0,1,98,98.67V84.17c-4.34-1.26-7.34-3.45-8.7-6.77H34.17A18.9,18.9,0,0,1,24.5,84.17Z"/><circle class="cls-1" cx="100" cy="79.01" r="1"/><circle class="cls-1" cx="101" cy="103.01" r="1"/><path class="cls-2" d="M69,101c0-6.08-3.13-11-7-11s-7,4.92-7,11"/><circle class="cls-2" cx="62" cy="86.01" r="4"/><line class="cls-2" x1="55" y1="100.01" x2="69" y2="100.01"/><path class="cls-1" d="M106,75v31H19V75h87m2-2H17v35h91V73Z"/><circle class="cls-2" cx="61.5" cy="90.51" r="60.5"/><path class="cls-1" d="M37.89,15.44V2.56h4.17a15.16,15.16,0,0,1,3.1.19A3.34,3.34,0,0,1,47,4a4,4,0,0,1,.75,2.51,4.2,4.2,0,0,1-.43,2,3.51,3.51,0,0,1-1.1,1.27,3.91,3.91,0,0,1-1.34.61,15.29,15.29,0,0,1-2.7.18h-1.7v4.86Zm2.6-10.7V8.39h1.43a6.53,6.53,0,0,0,2-.2,1.67,1.67,0,0,0,.82-.63,1.78,1.78,0,0,0,.29-1,1.68,1.68,0,0,0-.41-1.16,1.77,1.77,0,0,0-1.05-.57,12.15,12.15,0,0,0-1.87-.09Z"/><path class="cls-1" d="M52.24,15.44H49.77V6.11h2.3V7.44a4,4,0,0,1,1-1.24,2,2,0,0,1,1.07-.3,3.12,3.12,0,0,1,1.63.46l-.77,2.16a2.15,2.15,0,0,0-1.16-.41A1.36,1.36,0,0,0,53,8.4a2,2,0,0,0-.57,1,14.45,14.45,0,0,0-.21,3.13Z"/><path class="cls-1" d="M56.88,4.84V2.56h2.47V4.84Zm0,10.6V6.11h2.47v9.33Z"/><path class="cls-1" d="M61,12.78l2.48-.38a1.87,1.87,0,0,0,.64,1.1,2.26,2.26,0,0,0,1.36.37,2.46,2.46,0,0,0,1.44-.35.79.79,0,0,0,.32-.66.65.65,0,0,0-.17-.47,2.08,2.08,0,0,0-.83-.32,13.19,13.19,0,0,1-3.79-1.21,2.41,2.41,0,0,1-1.1-2.1,2.61,2.61,0,0,1,1-2,4.49,4.49,0,0,1,3-.82,5.22,5.22,0,0,1,2.84.62,3.23,3.23,0,0,1,1.29,1.85l-2.33.43A1.45,1.45,0,0,0,66.52,8a2.11,2.11,0,0,0-1.19-.29,2.6,2.6,0,0,0-1.4.28.56.56,0,0,0-.28.5.53.53,0,0,0,.25.44,8.89,8.89,0,0,0,2.3.7A6.78,6.78,0,0,1,69,10.69a2.29,2.29,0,0,1,.77,1.83,2.8,2.8,0,0,1-1.07,2.21,4.7,4.7,0,0,1-3.17.92,5.18,5.18,0,0,1-3-.77A3.61,3.61,0,0,1,61,12.78Z"/><path class="cls-1" d="M77.3,12.47l2.46.41A4,4,0,0,1,78.26,15a4.39,4.39,0,0,1-2.56.7,4.17,4.17,0,0,1-3.6-1.59,5.3,5.3,0,0,1-.93-3.21,5.17,5.17,0,0,1,1.22-3.64A4,4,0,0,1,75.45,5.9a4.16,4.16,0,0,1,3.29,1.37,6.08,6.08,0,0,1,1.15,4.22H73.71a2.47,2.47,0,0,0,.59,1.71,1.9,1.9,0,0,0,1.43.61,1.51,1.51,0,0,0,1-.32A1.88,1.88,0,0,0,77.3,12.47ZM77.44,10a2.38,2.38,0,0,0-.55-1.63,1.78,1.78,0,0,0-2.62,0,2.25,2.25,0,0,0-.52,1.6Z"/><path class="cls-1" d="M84.27,15.44H81.8V6.11h2.29V7.44A4.11,4.11,0,0,1,85.15,6.2a2,2,0,0,1,1.07-.3,3.15,3.15,0,0,1,1.63.46l-.77,2.16a2.15,2.15,0,0,0-1.16-.41A1.39,1.39,0,0,0,85,8.4a1.88,1.88,0,0,0-.56,1,14.45,14.45,0,0,0-.21,3.13Z"/></svg>