<svg id="Layer_1" data-name="Layer 1" xmlns="http://www.w3.org/2000/svg" width="123" height="152.01" viewBox="0 0 123 152.01"><defs><style>.cls-1{fill:none;stroke:#fff;stroke-miterlimit:10;stroke-width:2px;}.cls-2{fill:#fff;}</style></defs><title>Rundvisning</title><path class="cls-1" d="M81.63,122c0-18.49-9.47-33.48-21.15-33.48s-21.16,15-21.16,33.48"/><ellipse class="cls-1" cx="60.48" cy="76.36" rx="12.09" ry="12.17"/><line class="cls-1" x1="38.14" y1="121.32" x2="81.63" y2="121.32"/><line class="cls-1" x1="73.37" y1="94.87" x2="86.35" y2="63.01"/><rect class="cls-1" x="82.81" y="66.55" width="20.06" height="12.98" transform="translate(33.1 -28.87) rotate(21.43)"/><circle class="cls-1" cx="61.5" cy="90.51" r="60.5"/><path class="cls-2" d="M8.9,15.44V2.56h5.47a9.53,9.53,0,0,1,3,.34,3,3,0,0,1,1.49,1.24,3.67,3.67,0,0,1,.57,2,3.4,3.4,0,0,1-.86,2.39A4.09,4.09,0,0,1,16,9.76a5.77,5.77,0,0,1,1.39,1.08,15,15,0,0,1,1.48,2.09l1.57,2.51H17.37l-1.88-2.8a19.69,19.69,0,0,0-1.37-1.9,2.08,2.08,0,0,0-.78-.53A4.21,4.21,0,0,0,12,10.06H11.5v5.38ZM11.5,8h1.92a10.23,10.23,0,0,0,2.34-.16,1.4,1.4,0,0,0,.73-.55,1.62,1.62,0,0,0,.27-1,1.53,1.53,0,0,0-.35-1,1.58,1.58,0,0,0-1-.51c-.21,0-.85,0-1.9,0h-2Z"/><path class="cls-2" d="M28,15.44V14a3.48,3.48,0,0,1-1.34,1.18,3.68,3.68,0,0,1-1.75.43,3.38,3.38,0,0,1-1.69-.41,2.52,2.52,0,0,1-1.08-1.16A5.26,5.26,0,0,1,21.82,12V6.11h2.47V10.4a12.18,12.18,0,0,0,.13,2.41,1.34,1.34,0,0,0,.5.7,1.48,1.48,0,0,0,.91.26A2,2,0,0,0,27,13.43a1.79,1.79,0,0,0,.68-.87,9.5,9.5,0,0,0,.19-2.51V6.11h2.47v9.33Z"/><path class="cls-2" d="M41.36,15.44H38.89V10.68a7.64,7.64,0,0,0-.16-2A1.45,1.45,0,0,0,38.21,8a1.47,1.47,0,0,0-.85-.24,1.93,1.93,0,0,0-1.15.35,1.71,1.71,0,0,0-.7.93,7.86,7.86,0,0,0-.19,2.14v4.23H32.85V6.11h2.29V7.48A3.73,3.73,0,0,1,38.22,5.9a3.81,3.81,0,0,1,1.49.29,2.6,2.6,0,0,1,1,.75,2.75,2.75,0,0,1,.48,1,7.74,7.74,0,0,1,.14,1.66Z"/><path class="cls-2" d="M52.42,15.44H50.13V14.07a3.71,3.71,0,0,1-1.35,1.19,3.47,3.47,0,0,1-1.57.39,3.55,3.55,0,0,1-2.75-1.29,5.26,5.26,0,0,1-1.15-3.62,5.25,5.25,0,0,1,1.11-3.61A3.67,3.67,0,0,1,47.25,5.9,3.47,3.47,0,0,1,50,7.2V2.56h2.47Zm-6.59-4.87a4.37,4.37,0,0,0,.41,2.17,1.88,1.88,0,0,0,1.67,1A1.82,1.82,0,0,0,49.36,13a3.36,3.36,0,0,0,.6-2.17,3.68,3.68,0,0,0-.58-2.32,1.83,1.83,0,0,0-1.48-.7,1.86,1.86,0,0,0-1.48.7A3.17,3.17,0,0,0,45.83,10.57Z"/><path class="cls-2" d="M57.42,15.44,53.66,6.11h2.59L58,10.87l.51,1.59c.14-.4.22-.67.26-.8s.17-.52.26-.79l1.78-4.76h2.54l-3.71,9.33Z"/><path class="cls-2" d="M64.87,4.84V2.56h2.47V4.84Zm0,10.6V6.11h2.47v9.33Z"/><path class="cls-2" d="M69,12.78l2.48-.38a1.82,1.82,0,0,0,.64,1.1,2.21,2.21,0,0,0,1.35.37,2.46,2.46,0,0,0,1.44-.35.8.8,0,0,0,.33-.66.66.66,0,0,0-.18-.47,2.09,2.09,0,0,0-.82-.32,13,13,0,0,1-3.79-1.21,2.39,2.39,0,0,1-1.11-2.1,2.59,2.59,0,0,1,1-2,4.48,4.48,0,0,1,3-.82,5.24,5.24,0,0,1,2.85.62A3.18,3.18,0,0,1,77.4,8.37l-2.33.43A1.45,1.45,0,0,0,74.5,8a2.07,2.07,0,0,0-1.19-.29A2.56,2.56,0,0,0,71.92,8a.57.57,0,0,0-.29.5.55.55,0,0,0,.25.44,8.88,8.88,0,0,0,2.31.7,6.79,6.79,0,0,1,2.75,1.1,2.27,2.27,0,0,1,.78,1.83,2.81,2.81,0,0,1-1.08,2.21,4.7,4.7,0,0,1-3.17.92,5.18,5.18,0,0,1-3-.77A3.59,3.59,0,0,1,69,12.78Z"/><path class="cls-2" d="M88.37,15.44H85.9V10.68a7.19,7.19,0,0,0-.16-2A1.43,1.43,0,0,0,85.23,8a1.52,1.52,0,0,0-.86-.24,1.93,1.93,0,0,0-1.15.35,1.76,1.76,0,0,0-.7.93,7.86,7.86,0,0,0-.19,2.14v4.23H79.86V6.11h2.3V7.48A3.71,3.71,0,0,1,85.23,5.9a3.86,3.86,0,0,1,1.5.29,2.56,2.56,0,0,1,1,.75,2.75,2.75,0,0,1,.48,1,7.74,7.74,0,0,1,.14,1.66Z"/><path class="cls-2" d="M90.87,4.84V2.56h2.47V4.84Zm0,10.6V6.11h2.47v9.33Z"/><path class="cls-2" d="M104.37,15.44H101.9V10.68a7.64,7.64,0,0,0-.16-2,1.45,1.45,0,0,0-.52-.69,1.47,1.47,0,0,0-.85-.24,2,2,0,0,0-1.16.35,1.74,1.74,0,0,0-.69.93,7.86,7.86,0,0,0-.19,2.14v4.23H95.86V6.11h2.29V7.48a3.73,3.73,0,0,1,3.08-1.58,3.81,3.81,0,0,1,1.49.29,2.67,2.67,0,0,1,1,.75,2.75,2.75,0,0,1,.48,1,7.74,7.74,0,0,1,.14,1.66Z"/><path class="cls-2" d="M106.64,16.06l2.82.34a1,1,0,0,0,.33.68,1.89,1.89,0,0,0,1.11.26,2.94,2.94,0,0,0,1.45-.29,1.24,1.24,0,0,0,.49-.62,4.09,4.09,0,0,0,.11-1.14V13.93a3.33,3.33,0,0,1-2.79,1.51,3.43,3.43,0,0,1-3-1.59,5.37,5.37,0,0,1-.86-3.13,5.09,5.09,0,0,1,1.13-3.58,3.61,3.61,0,0,1,2.8-1.24,3.4,3.4,0,0,1,2.86,1.52V6.11h2.31v8.37a8.36,8.36,0,0,1-.27,2.47,3,3,0,0,1-.77,1.29,3.35,3.35,0,0,1-1.31.73,7.13,7.13,0,0,1-2.08.26,5.37,5.37,0,0,1-3.36-.81,2.53,2.53,0,0,1-1-2.06C106.63,16.27,106.64,16.17,106.64,16.06Zm2.21-5.48a3.41,3.41,0,0,0,.57,2.18,1.79,1.79,0,0,0,1.42.69,2,2,0,0,0,1.53-.71,3.06,3.06,0,0,0,.63-2.1,3.26,3.26,0,0,0-.6-2.15,1.89,1.89,0,0,0-1.51-.7,1.83,1.83,0,0,0-1.47.69A3.25,3.25,0,0,0,108.85,10.58Z"/></svg>