<svg id="Layer_1" data-name="Layer 1" xmlns="http://www.w3.org/2000/svg" width="181" height="209.31" viewBox="0 0 181 209.31"><defs><style>.cls-1{fill:#fff;}.cls-2{fill:none;}.cls-2,.cls-3{stroke:#000;stroke-miterlimit:10;stroke-width:2px;}.cls-3{fill:#f9f7f7;}</style></defs><title>Artboard 5</title><circle class="cls-1" cx="90.5" cy="118.81" r="88.5"/><path d="M90.5,32.31A86.5,86.5,0,1,1,4,118.81a86.59,86.59,0,0,1,86.5-86.5m0-4a90.5,90.5,0,1,0,90.5,90.5,90.5,90.5,0,0,0-90.5-90.5Z"/><path d="M34.8,17.16V2.84h6.08a10.37,10.37,0,0,1,3.34.39A3.25,3.25,0,0,1,45.88,4.6a4.11,4.11,0,0,1,.63,2.26,3.84,3.84,0,0,1-.95,2.66,4.54,4.54,0,0,1-2.83,1.32A6.43,6.43,0,0,1,44.27,12a16,16,0,0,1,1.65,2.33l1.75,2.79H44.21L42.12,14a20.75,20.75,0,0,0-1.52-2.1,2.28,2.28,0,0,0-.87-.6,5.05,5.05,0,0,0-1.46-.16h-.58v6ZM37.69,8.9h2.14a10.72,10.72,0,0,0,2.59-.18,1.55,1.55,0,0,0,.81-.6A1.86,1.86,0,0,0,43.53,7a1.72,1.72,0,0,0-.39-1.17,1.82,1.82,0,0,0-1.09-.56c-.23,0-.93,0-2.11,0H37.69Z"/><path d="M56,17.16V15.61a4,4,0,0,1-1.49,1.3,4.2,4.2,0,0,1-1.95.48,3.79,3.79,0,0,1-1.88-.46,2.68,2.68,0,0,1-1.2-1.29,5.84,5.84,0,0,1-.37-2.29V6.79H51.9v4.76a13.32,13.32,0,0,0,.15,2.68,1.42,1.42,0,0,0,.55.78,1.66,1.66,0,0,0,1,.29,2.25,2.25,0,0,0,1.26-.38,2,2,0,0,0,.76-1,11.55,11.55,0,0,0,.2-2.8V6.79h2.75V17.16Z"/><path d="M70.86,17.16H68.12V11.87a8.07,8.07,0,0,0-.18-2.18,1.53,1.53,0,0,0-.57-.76,1.57,1.57,0,0,0-1-.28A2.2,2.2,0,0,0,65.14,9a2,2,0,0,0-.78,1,8.92,8.92,0,0,0-.21,2.38v4.7H61.41V6.79H64V8.31A4.24,4.24,0,0,1,69,6.88a2.8,2.8,0,0,1,1.13.83,3,3,0,0,1,.54,1.16,8.59,8.59,0,0,1,.15,1.84Z"/><path d="M83.16,17.16H80.61V15.63A4.18,4.18,0,0,1,79.11,17a3.85,3.85,0,0,1-1.74.43A4,4,0,0,1,74.3,16a5.86,5.86,0,0,1-1.27-4,5.8,5.8,0,0,1,1.24-4A4.06,4.06,0,0,1,77.4,6.55a3.86,3.86,0,0,1,3,1.45V2.84h2.75Zm-7.33-5.41a4.7,4.7,0,0,0,.46,2.4,2.06,2.06,0,0,0,1.86,1.07,2,2,0,0,0,1.61-.8A3.74,3.74,0,0,0,80.42,12a4.05,4.05,0,0,0-.64-2.57,2,2,0,0,0-1.65-.79,2.07,2.07,0,0,0-1.64.78A3.51,3.51,0,0,0,75.83,11.75Z"/><path d="M88.71,17.16,84.53,6.79h2.88l2,5.29.56,1.77c.15-.45.25-.75.29-.89.09-.29.19-.59.29-.88l2-5.29H95.3L91.18,17.16Z"/><path d="M97,5.38V2.84h2.75V5.38Zm0,11.78V6.79h2.75V17.16Z"/><path d="M101.57,14.2l2.76-.42A2.05,2.05,0,0,0,105,15a2.45,2.45,0,0,0,1.5.41,2.75,2.75,0,0,0,1.61-.39.87.87,0,0,0,.36-.73.73.73,0,0,0-.2-.52,2.13,2.13,0,0,0-.92-.36,14.88,14.88,0,0,1-4.2-1.34A2.67,2.67,0,0,1,102,9.74,2.87,2.87,0,0,1,103,7.47a5,5,0,0,1,3.3-.92,5.67,5.67,0,0,1,3.16.7,3.52,3.52,0,0,1,1.43,2.05l-2.59.48a1.56,1.56,0,0,0-.63-.93,2.26,2.26,0,0,0-1.32-.32,3,3,0,0,0-1.55.3.65.65,0,0,0-.32.55.61.61,0,0,0,.28.5,10.35,10.35,0,0,0,2.56.77,7.62,7.62,0,0,1,3.06,1.23,2.52,2.52,0,0,1,.86,2,3.12,3.12,0,0,1-1.19,2.45,5.29,5.29,0,0,1-3.53,1,5.71,5.71,0,0,1-3.35-.86A4,4,0,0,1,101.57,14.2Z"/><path d="M123.1,17.16h-2.75V11.87a8.69,8.69,0,0,0-.17-2.18,1.53,1.53,0,0,0-.57-.76,1.6,1.6,0,0,0-1-.28,2.17,2.17,0,0,0-1.27.39,2,2,0,0,0-.78,1,8.92,8.92,0,0,0-.21,2.38v4.7h-2.75V6.79h2.55V8.31a4.17,4.17,0,0,1,3.42-1.76,4.07,4.07,0,0,1,1.66.33,2.91,2.91,0,0,1,1.14.83A3,3,0,0,1,123,8.87a8.59,8.59,0,0,1,.15,1.84Z"/><path d="M125.88,5.38V2.84h2.74V5.38Zm0,11.78V6.79h2.74V17.16Z"/><path d="M140.87,17.16h-2.74V11.87A8.07,8.07,0,0,0,138,9.69a1.53,1.53,0,0,0-.57-.76,1.57,1.57,0,0,0-.95-.28,2.2,2.2,0,0,0-1.28.39,2,2,0,0,0-.78,1,8.92,8.92,0,0,0-.21,2.38v4.7h-2.74V6.79H134V8.31a4.14,4.14,0,0,1,3.41-1.76,4.07,4.07,0,0,1,1.66.33,2.77,2.77,0,0,1,1.14.83,3,3,0,0,1,.54,1.16,8.59,8.59,0,0,1,.15,1.84Z"/><path d="M143.4,17.84l3.14.38a1,1,0,0,0,.36.75,2,2,0,0,0,1.23.3,3.27,3.27,0,0,0,1.61-.32,1.41,1.41,0,0,0,.55-.7,4.42,4.42,0,0,0,.12-1.26V15.48a3.7,3.7,0,0,1-3.1,1.68A3.81,3.81,0,0,1,144,15.39a6,6,0,0,1-1-3.48,5.75,5.75,0,0,1,1.25-4,4.06,4.06,0,0,1,3.12-1.38,3.82,3.82,0,0,1,3.18,1.69V6.79h2.57v9.3a9.33,9.33,0,0,1-.31,2.75,3.31,3.31,0,0,1-.85,1.42,3.59,3.59,0,0,1-1.46.81,7.44,7.44,0,0,1-2.31.3,6,6,0,0,1-3.74-.91,2.84,2.84,0,0,1-1.1-2.29C143.39,18.08,143.39,18,143.4,17.84Zm2.45-6.08a3.7,3.7,0,0,0,.64,2.41,2,2,0,0,0,1.58.77,2.2,2.2,0,0,0,1.7-.78,3.47,3.47,0,0,0,.69-2.33,3.66,3.66,0,0,0-.66-2.4,2.13,2.13,0,0,0-1.68-.78,2,2,0,0,0-1.63.77A3.57,3.57,0,0,0,145.85,11.76Z"/><path class="cls-2" d="M54.86,173.31c0-30,14.87-54.34,33.21-54.34s33.2,24.33,33.2,54.34"/><line class="cls-2" x1="54" y1="173.31" x2="123" y2="172.45"/><circle class="cls-3" cx="86.78" cy="96.55" r="22.42"/><line class="cls-2" x1="111" y1="135.28" x2="131" y2="74.31"/><rect class="cls-2" x="126.21" y="80.42" width="36.43" height="22.6" transform="translate(37.48 -41.82) rotate(18.89)"/><path class="cls-3" d="M66,81.81c0-11.32,9.63-20.5,21.5-20.5S109,70.49,109,81.81"/><path class="cls-3" d="M97.76,93.31H76.43a5.11,5.11,0,0,1-4.51-2.26L66,80.31h43l-6.89,10.94A5.12,5.12,0,0,1,97.76,93.31Z"/></svg>