<svg id="Layer_1" data-name="Layer 1" xmlns="http://www.w3.org/2000/svg" width="123" height="152.01" viewBox="0 0 123 152.01"><defs><style>.cls-1{fill:none;stroke:#fff;stroke-miterlimit:10;stroke-width:2px;}.cls-2{fill:#fff;}</style></defs><title>Rundvisning_ny</title><path class="cls-1" d="M81.63,122c0-18.49-9.47-33.48-21.15-33.48s-21.16,15-21.16,33.48"/><ellipse class="cls-1" cx="60.48" cy="76.36" rx="12.09" ry="12.17"/><line class="cls-1" x1="38.14" y1="121.32" x2="81.63" y2="121.32"/><line class="cls-1" x1="73.37" y1="94.87" x2="86.35" y2="63.01"/><rect class="cls-1" x="82.81" y="66.55" width="20.06" height="12.98" transform="matrix(0.93, 0.37, -0.37, 0.93, 33.1, -28.87)"/><circle class="cls-1" cx="61.5" cy="90.51" r="60.5"/><path class="cls-2" d="M24,15.51H22.81L19.6,10l-1.29,0-.79-.47v5.92l-.17.14h-1.1l-.16-.14V2.8l.13-.12h4.23c2.68,0,3.31,1.53,3.31,3.22v1c0,.74-.3,3-2.55,3L24.16,15v.4Zm-3.76-6.8c1.51,0,2.05-.45,2.05-1.84V6c0-1.42-.57-1.85-1.91-1.85H17.52V8.71Z"/><path class="cls-2" d="M31,15.37a3.5,3.5,0,0,1-1.39.31c-2.39,0-3.47-1-3.47-3V6.22l.16-.16h1.24v6.59c0,1,.38,1.62,2.07,1.62,1.91,0,2.11-.25,2.11-1.91V6.22l.16-.16h1.26v9.29l-.11.16H31.72v-.64Z"/><path class="cls-2" d="M43,9.09v6.28l-.14.14H41.55V9.09c0-1.34-.38-1.8-2.09-1.8-1.91,0-2.09.75-2.09,1.24v6.84l-.15.14H36V6.22l.14-.16h1.12l.16.16,0,.6.86-.61a2.37,2.37,0,0,1,1.21-.31C41.85,5.9,43,6.44,43,9.09Z"/><path class="cls-2" d="M51.46,2.55h1l.18.18V15.51H51.41l-.14-.14v-.56l-1.1.69a5.34,5.34,0,0,1-1.44.19c-2.54,0-3.41-.95-3.41-3.33V9.19c0-2.12.9-3.25,3.41-3.25A8.8,8.8,0,0,1,50,6.08l1.28.58V2.75Zm-4.77,9.81c0,1.35.52,1.93,2,1.93,2.12,0,2.54-.41,2.54-2V9.32c0-1.76-.56-2-2.54-2-1.75,0-2,.67-2,1.93Z"/><path class="cls-2" d="M58.05,14.25V14c.78-2.49,1.78-5.49,2.59-8H62v.27l-2.95,9.18H56.92l-3-9.2V6.06h1.39l2.59,8v.21Z"/><path class="cls-2" d="M65.25,2.59V4.3l-.14.14H63.7l-.14-.14,0-1.7.16-.16h1.41Zm-.14,12.78-.13.14H63.86l-.14-.14V6.22l.16-.16h1.05l.18.16Z"/><path class="cls-2" d="M73.4,8.73l-.1-.11c-.06-1-.34-1.3-2-1.3s-1.87.74-1.87,1.37c0,.47.14.77,1,1,.38.11.83.2,2.5.66s2,1.32,2,2.36c0,2-.57,2.95-3.51,2.95-1.92,0-3.42-.61-3.51-2.88l.11-.1h1.22l.09.1c.15,1,.4,1.52,2.09,1.52,2,0,2.13-.29,2.13-1.59,0-.54-.24-1-1.1-1.19s-1.55-.41-2.34-.63c-1.44-.38-2-1-2-2.23C68,7.18,68.83,6,71.3,6s3.38.81,3.44,2.67l-.11.12Z"/><path class="cls-2" d="M84.15,9.09v6.28l-.14.14H82.75V9.09c0-1.34-.38-1.8-2.09-1.8-1.91,0-2.09.75-2.09,1.24v6.84l-.14.14H77.15V6.22l.14-.16h1.12l.16.16,0,.6.86-.61a2.37,2.37,0,0,1,1.21-.31C83.05,5.9,84.15,6.44,84.15,9.09Z"/><path class="cls-2" d="M88.43,2.59V4.3l-.14.14H86.88l-.14-.14,0-1.7.16-.16h1.41Zm-.14,12.78-.13.14H87.05l-.15-.14V6.22l.17-.16h1l.18.16Z"/><path class="cls-2" d="M98.53,9.09v6.28l-.14.14H97.13V9.09c0-1.34-.38-1.8-2.09-1.8C93.13,7.29,93,8,93,8.53v6.84l-.14.14H91.53V6.22l.14-.16h1.12l.16.16,0,.6.86-.61A2.37,2.37,0,0,1,95,5.9C97.43,5.9,98.53,6.44,98.53,9.09Z"/><path class="cls-2" d="M102.76,17.59v0c.16.77.83.9,1.77.9,1.13,0,2-.15,2-2.2V15.08l-1.08.52a5.65,5.65,0,0,1-1,.11c-2.13,0-3.48-1-3.48-3.42V9.52c0-2.34.9-3.67,3.48-3.57.81,0,1.11.09,1.31.24,0,0,.74.75.74.74V6.22l.16-.14h1.14l.12.14V16.27c0,3-1.71,3.49-3.47,3.49s-3.08-.52-3.26-2.17l.14-.15h1.21Zm3.82-9.19c0-.9-.2-1.08-2-1.08s-2.07.6-2.07,2.2v2.77c0,1.21.37,2,2.07,2l2-.09Z"/></svg>