<svg id="Layer_1" data-name="Layer 1" xmlns="http://www.w3.org/2000/svg" width="181" height="209.62" viewBox="0 0 181 209.62"><defs><style>.cls-1,.cls-2{fill:#fff;}.cls-2,.cls-3,.cls-4,.cls-5{stroke:#000;stroke-miterlimit:10;}.cls-2,.cls-3{stroke-width:4px;}.cls-3,.cls-4,.cls-5{fill:none;}.cls-4{stroke-width:2px;}</style></defs><title>Artboard 4</title><circle class="cls-1" cx="90.5" cy="119.12" r="88.5"/><path d="M90.5,32.62A86.5,86.5,0,1,1,4,119.12a86.59,86.59,0,0,1,86.5-86.5m0-4a90.5,90.5,0,1,0,90.5,90.5,90.5,90.5,0,0,0-90.5-90.5Z"/><circle class="cls-2" cx="90" cy="120.62" r="45"/><line class="cls-3" x1="112" y1="160.62" x2="118" y2="169.62"/><line class="cls-3" x1="67.43" y1="160.29" x2="62.57" y2="169.95"/><line class="cls-3" x1="119.59" y1="121.12" x2="130.41" y2="121.12"/><line class="cls-3" x1="48.59" y1="121.12" x2="59.41" y2="121.12"/><line class="cls-3" x1="90" y1="150.71" x2="90" y2="161.53"/><line class="cls-3" x1="90" y1="79.71" x2="90" y2="90.53"/><circle cx="90" cy="122.62" r="3"/><line class="cls-4" x1="90" y1="120.62" x2="90" y2="94.62"/><line class="cls-4" x1="89" y1="121.62" x2="78" y2="111.62"/><line class="cls-3" x1="90" y1="67.62" x2="90" y2="75.62"/><line class="cls-3" x1="85" y1="66.62" x2="95" y2="66.62"/><line class="cls-3" x1="53" y1="77.48" x2="61" y2="84.76"/><line class="cls-3" x1="125.99" y1="76.47" x2="118.01" y2="83.78"/><path class="cls-5" d="M47.93,83.69A8.12,8.12,0,0,1,59.21,72"/><line class="cls-5" x1="47.26" y1="83.87" x2="59.28" y2="71.39"/><path class="cls-5" d="M120.2,71.13a8.11,8.11,0,0,1,11.53,11.42"/><line class="cls-5" x1="120.02" y1="70.46" x2="132.37" y2="82.63"/><path d="M47.7,17.16H44.55L43.3,13.91H37.58L36.4,17.16H33.33L38.91,2.84H42Zm-5.33-5.67-2-5.31-1.93,5.31Zm0-9.59a1.85,1.85,0,0,1-.57,1.36,1.91,1.91,0,0,1-2.7,0A1.84,1.84,0,0,1,38.5,1.9,1.84,1.84,0,0,1,39.06.55a1.91,1.91,0,0,1,2.7,0A1.81,1.81,0,0,1,42.33,1.9Zm-1,0A.82.82,0,0,0,41,1.29.84.84,0,0,0,40.41,1a.82.82,0,0,0-.61.25.83.83,0,0,0-.26.61.84.84,0,0,0,.26.62.82.82,0,0,0,.61.25A.84.84,0,0,0,41,2.52.83.83,0,0,0,41.28,1.9Z"/><path d="M49.09,17.16V2.84h2.75V8a3.86,3.86,0,0,1,3-1.45A4.06,4.06,0,0,1,58,7.92a5.69,5.69,0,0,1,1.24,3.95A6,6,0,0,1,58,16a4,4,0,0,1-3.08,1.43A3.88,3.88,0,0,1,53.13,17a4.33,4.33,0,0,1-1.49-1.32v1.53Zm2.73-5.41a4.38,4.38,0,0,0,.51,2.38,2.15,2.15,0,0,0,1.89,1.09,1.93,1.93,0,0,0,1.55-.77A3.86,3.86,0,0,0,56.41,12a4,4,0,0,0-.65-2.56,2,2,0,0,0-1.65-.79,2.09,2.09,0,0,0-1.64.77A3.56,3.56,0,0,0,51.82,11.75Z"/><path d="M70.86,17.16H68.12V11.87a8.07,8.07,0,0,0-.18-2.18,1.53,1.53,0,0,0-.57-.76,1.57,1.57,0,0,0-1-.28A2.2,2.2,0,0,0,65.14,9a2,2,0,0,0-.78,1,8.92,8.92,0,0,0-.21,2.38v4.7H61.41V6.79H64V8.31a4.14,4.14,0,0,1,3.41-1.76A4.07,4.07,0,0,1,69,6.88a2.77,2.77,0,0,1,1.14.83,3,3,0,0,1,.54,1.16,8.59,8.59,0,0,1,.15,1.84Z"/><path d="M73.64,5.38V2.84h2.75V5.38Zm0,11.78V6.79h2.75V17.16Z"/><path d="M88.63,17.16H85.89V11.87a8.07,8.07,0,0,0-.18-2.18,1.42,1.42,0,0,0-.57-.76,1.57,1.57,0,0,0-1-.28A2.22,2.22,0,0,0,82.91,9a2,2,0,0,0-.77,1,8.92,8.92,0,0,0-.21,2.38v4.7H79.18V6.79h2.55V8.31a4.15,4.15,0,0,1,3.42-1.76,4.1,4.1,0,0,1,1.66.33A2.91,2.91,0,0,1,88,7.71a3.15,3.15,0,0,1,.53,1.16,8.59,8.59,0,0,1,.15,1.84Z"/><path d="M91.16,17.84l3.14.38a1,1,0,0,0,.36.75,2,2,0,0,0,1.23.3A3.24,3.24,0,0,0,97.5,19a1.41,1.41,0,0,0,.55-.7A4.32,4.32,0,0,0,98.18,17V15.48a3.73,3.73,0,0,1-3.11,1.68,3.82,3.82,0,0,1-3.31-1.77,6,6,0,0,1-1-3.48,5.71,5.71,0,0,1,1.26-4,4,4,0,0,1,3.12-1.38,3.81,3.81,0,0,1,3.17,1.69V6.79h2.57v9.3a9.39,9.39,0,0,1-.3,2.75,3.41,3.41,0,0,1-.85,1.42,3.66,3.66,0,0,1-1.46.81,7.53,7.53,0,0,1-2.31.3,5.91,5.91,0,0,1-3.74-.91,2.82,2.82,0,0,1-1.11-2.29C91.15,18.08,91.16,18,91.16,17.84Zm2.45-6.08a3.76,3.76,0,0,0,.64,2.41,2,2,0,0,0,1.58.77,2.19,2.19,0,0,0,1.7-.78,3.47,3.47,0,0,0,.69-2.33,3.66,3.66,0,0,0-.66-2.4,2.1,2.1,0,0,0-1.68-.78,2,2,0,0,0-1.63.77A3.63,3.63,0,0,0,93.61,11.76Z"/><path d="M102.67,14.2l2.75-.42a2.1,2.1,0,0,0,.71,1.22,2.46,2.46,0,0,0,1.51.41,2.72,2.72,0,0,0,1.6-.39.87.87,0,0,0,.36-.73.73.73,0,0,0-.19-.52,2.25,2.25,0,0,0-.92-.36,14.87,14.87,0,0,1-4.21-1.34,2.67,2.67,0,0,1-1.23-2.33,2.87,2.87,0,0,1,1.06-2.27,5,5,0,0,1,3.3-.92,5.71,5.71,0,0,1,3.17.7A3.51,3.51,0,0,1,112,9.3l-2.58.48a1.66,1.66,0,0,0-.63-.93,2.27,2.27,0,0,0-1.33-.32,3,3,0,0,0-1.55.3.64.64,0,0,0-.31.55.6.6,0,0,0,.27.5,10.35,10.35,0,0,0,2.56.77,7.61,7.61,0,0,1,3.07,1.23,2.52,2.52,0,0,1,.85,2,3.12,3.12,0,0,1-1.19,2.45,5.28,5.28,0,0,1-3.52,1,5.77,5.77,0,0,1-3.36-.86A3.94,3.94,0,0,1,102.67,14.2Z"/><path d="M119.51,6.79V9h-1.87v4.18a11.82,11.82,0,0,0,0,1.48.62.62,0,0,0,.25.35.76.76,0,0,0,.46.14,3.48,3.48,0,0,0,1.1-.27l.24,2.13a5.35,5.35,0,0,1-2.17.41,3.4,3.4,0,0,1-1.34-.25,1.87,1.87,0,0,1-.87-.64,2.45,2.45,0,0,1-.39-1.07,12.94,12.94,0,0,1-.09-1.93V9h-1.26V6.79h1.26V4.73l2.76-1.61V6.79Z"/><path d="M121.42,5.38V2.84h2.74V5.38Zm0,11.78V6.79h2.74V17.16Z"/><path d="M136.49,17.16h-2.55V15.63a4.18,4.18,0,0,1-1.5,1.33,3.85,3.85,0,0,1-1.74.43A4,4,0,0,1,127.63,16a5.86,5.86,0,0,1-1.27-4,5.8,5.8,0,0,1,1.24-4,4.06,4.06,0,0,1,3.13-1.37,3.86,3.86,0,0,1,3,1.45V2.84h2.75Zm-7.33-5.41a4.7,4.7,0,0,0,.46,2.4,2.06,2.06,0,0,0,1.86,1.07,2,2,0,0,0,1.61-.8,3.74,3.74,0,0,0,.66-2.41,4.05,4.05,0,0,0-.64-2.57,2,2,0,0,0-1.65-.79,2.07,2.07,0,0,0-1.64.78A3.51,3.51,0,0,0,129.16,11.75Z"/><path d="M145.2,13.86l2.73.46a4.55,4.55,0,0,1-1.66,2.29,4.93,4.93,0,0,1-2.85.78,4.63,4.63,0,0,1-4-1.77,5.87,5.87,0,0,1-1-3.57,5.73,5.73,0,0,1,1.35-4,4.45,4.45,0,0,1,3.41-1.46,4.6,4.6,0,0,1,3.65,1.53,6.77,6.77,0,0,1,1.28,4.68H141.2a2.73,2.73,0,0,0,.67,1.9,2,2,0,0,0,1.58.68,1.69,1.69,0,0,0,1.08-.35A2.11,2.11,0,0,0,145.2,13.86Zm.15-2.78a2.66,2.66,0,0,0-.61-1.81,1.91,1.91,0,0,0-1.43-.62,1.89,1.89,0,0,0-1.48.66,2.55,2.55,0,0,0-.58,1.77Z"/><path d="M152.94,17.16H150.2V6.79h2.55V8.26a4.41,4.41,0,0,1,1.17-1.38,2.2,2.2,0,0,1,1.19-.33,3.56,3.56,0,0,1,1.81.52l-.85,2.39A2.45,2.45,0,0,0,154.78,9a1.54,1.54,0,0,0-1,.32,2.15,2.15,0,0,0-.63,1.15,16.48,16.48,0,0,0-.23,3.48Z"/></svg>