<svg id="Layer_1" data-name="Layer 1" xmlns="http://www.w3.org/2000/svg" width="181" height="209.75" viewBox="0 0 181 209.75"><defs><style>.cls-1,.cls-4{fill:#fff;}.cls-2,.cls-5{fill:none;}.cls-2,.cls-3,.cls-4,.cls-5{stroke:#000;stroke-miterlimit:10;}.cls-2,.cls-3{stroke-width:2px;}.cls-3{fill:#f9f7f7;}</style></defs><title>Artboard 6</title><path d="M25.77,2.84h2.89V10.6A14.85,14.85,0,0,0,28.77,13a2.3,2.3,0,0,0,.88,1.41,3.12,3.12,0,0,0,1.91.53,2.92,2.92,0,0,0,1.85-.5,2,2,0,0,0,.76-1.24,17,17,0,0,0,.12-2.43V2.84h2.89v7.52A19.06,19.06,0,0,1,37,14a4.1,4.1,0,0,1-.87,1.8A4.29,4.29,0,0,1,34.4,17a7.31,7.31,0,0,1-2.75.43,8,8,0,0,1-3.11-.47,4.53,4.53,0,0,1-1.68-1.23,4,4,0,0,1-.81-1.59,17.33,17.33,0,0,1-.28-3.63Z"/><path d="M49.64,17.16H46.9V11.87a8.07,8.07,0,0,0-.18-2.18,1.42,1.42,0,0,0-.57-.76,1.57,1.57,0,0,0-.95-.28A2.22,2.22,0,0,0,43.92,9a2,2,0,0,0-.77,1,8.92,8.92,0,0,0-.21,2.38v4.7H40.19V6.79h2.55V8.31a4.16,4.16,0,0,1,3.42-1.76,4.1,4.1,0,0,1,1.66.33A2.91,2.91,0,0,1,49,7.71a3.15,3.15,0,0,1,.53,1.16,8.59,8.59,0,0,1,.15,1.84Z"/><path d="M61.94,17.16H59.39V15.63A4,4,0,0,1,57.89,17a3.82,3.82,0,0,1-1.74.43A4,4,0,0,1,53.09,16a5.86,5.86,0,0,1-1.28-4,5.85,5.85,0,0,1,1.24-4,4.06,4.06,0,0,1,3.14-1.37A3.88,3.88,0,0,1,59.2,8V2.84h2.74Zm-7.32-5.41a4.82,4.82,0,0,0,.45,2.4,2.07,2.07,0,0,0,1.86,1.07,2,2,0,0,0,1.61-.8A3.74,3.74,0,0,0,59.21,12a4,4,0,0,0-.65-2.57,2,2,0,0,0-1.65-.79,2.07,2.07,0,0,0-1.64.78A3.51,3.51,0,0,0,54.62,11.75Z"/><path d="M70.65,13.86l2.73.46a4.5,4.5,0,0,1-1.66,2.29,4.93,4.93,0,0,1-2.85.78,4.63,4.63,0,0,1-4-1.77,5.94,5.94,0,0,1-1-3.57,5.73,5.73,0,0,1,1.35-4A4.46,4.46,0,0,1,68.6,6.55a4.6,4.6,0,0,1,3.65,1.53,6.77,6.77,0,0,1,1.28,4.68H66.66a2.78,2.78,0,0,0,.66,1.9,2,2,0,0,0,1.58.68A1.74,1.74,0,0,0,70,15,2.17,2.17,0,0,0,70.65,13.86Zm.16-2.78a2.66,2.66,0,0,0-.62-1.81,1.89,1.89,0,0,0-1.42-.62,1.91,1.91,0,0,0-1.49.66,2.5,2.5,0,0,0-.57,1.77Z"/><path d="M78.39,17.16H75.65V6.79H78.2V8.26a4.41,4.41,0,0,1,1.18-1.38,2.14,2.14,0,0,1,1.18-.33,3.53,3.53,0,0,1,1.81.52l-.85,2.39A2.39,2.39,0,0,0,80.23,9a1.56,1.56,0,0,0-1,.32,2.29,2.29,0,0,0-.63,1.15A16.48,16.48,0,0,0,78.39,14Z"/><path d="M86.4,17.16,82.22,6.79H85.1l2,5.29.56,1.77c.15-.45.25-.75.29-.89.09-.29.19-.59.29-.88l2-5.29H93L88.87,17.16Z"/><path d="M94.67,5.38V2.84h2.75V5.38Zm0,11.78V6.79h2.75V17.16Z"/><path d="M99.26,14.2l2.76-.42a2,2,0,0,0,.71,1.22,2.45,2.45,0,0,0,1.5.41,2.75,2.75,0,0,0,1.61-.39.87.87,0,0,0,.36-.73.73.73,0,0,0-.2-.52,2.13,2.13,0,0,0-.92-.36,14.88,14.88,0,0,1-4.2-1.34,2.66,2.66,0,0,1-1.24-2.33,2.88,2.88,0,0,1,1.07-2.27,5,5,0,0,1,3.3-.92,5.67,5.67,0,0,1,3.16.7A3.52,3.52,0,0,1,108.6,9.3L106,9.78a1.56,1.56,0,0,0-.63-.93,2.26,2.26,0,0,0-1.32-.32,3,3,0,0,0-1.55.3.65.65,0,0,0-.32.55.61.61,0,0,0,.28.5,10.19,10.19,0,0,0,2.56.77,7.62,7.62,0,0,1,3.06,1.23,2.52,2.52,0,0,1,.86,2,3.15,3.15,0,0,1-1.19,2.45,5.31,5.31,0,0,1-3.53,1,5.71,5.71,0,0,1-3.35-.86A4,4,0,0,1,99.26,14.2Z"/><path d="M120.79,17.16H118V11.87a8.69,8.69,0,0,0-.17-2.18,1.53,1.53,0,0,0-.57-.76,1.62,1.62,0,0,0-1-.28,2.22,2.22,0,0,0-1.28.39,2,2,0,0,0-.77,1,8.92,8.92,0,0,0-.21,2.38v4.7h-2.75V6.79h2.55V8.31a4.17,4.17,0,0,1,3.42-1.76,4.07,4.07,0,0,1,1.66.33,2.91,2.91,0,0,1,1.14.83,3,3,0,0,1,.54,1.16,8.59,8.59,0,0,1,.15,1.84Z"/><path d="M123.57,5.38V2.84h2.74V5.38Zm0,11.78V6.79h2.74V17.16Z"/><path d="M138.56,17.16h-2.74V11.87a8.07,8.07,0,0,0-.18-2.18,1.53,1.53,0,0,0-.57-.76,1.57,1.57,0,0,0-.95-.28,2.18,2.18,0,0,0-1.28.39,2,2,0,0,0-.78,1,8.92,8.92,0,0,0-.21,2.38v4.7h-2.74V6.79h2.55V8.31a4.14,4.14,0,0,1,3.41-1.76,4.07,4.07,0,0,1,1.66.33,2.77,2.77,0,0,1,1.14.83,3,3,0,0,1,.54,1.16,8.59,8.59,0,0,1,.15,1.84Z"/><path d="M141.09,17.84l3.13.38a1.07,1.07,0,0,0,.37.75,2,2,0,0,0,1.23.3,3.27,3.27,0,0,0,1.61-.32,1.34,1.34,0,0,0,.54-.7A4,4,0,0,0,148.1,17V15.48a3.7,3.7,0,0,1-3.1,1.68,3.81,3.81,0,0,1-3.31-1.77,6,6,0,0,1-1-3.48,5.75,5.75,0,0,1,1.25-4,4.06,4.06,0,0,1,3.12-1.38,3.82,3.82,0,0,1,3.18,1.69V6.79h2.57v9.3a9.33,9.33,0,0,1-.31,2.75,3.31,3.31,0,0,1-.85,1.42,3.59,3.59,0,0,1-1.46.81,7.49,7.49,0,0,1-2.31.3,6,6,0,0,1-3.74-.91,2.84,2.84,0,0,1-1.1-2.29C141.08,18.08,141.08,18,141.09,17.84Zm2.45-6.08a3.7,3.7,0,0,0,.64,2.41,2,2,0,0,0,1.58.77,2.2,2.2,0,0,0,1.7-.78,3.47,3.47,0,0,0,.69-2.33,3.66,3.66,0,0,0-.66-2.4,2.13,2.13,0,0,0-1.68-.78,2,2,0,0,0-1.63.77A3.57,3.57,0,0,0,143.54,11.76Z"/><circle class="cls-1" cx="90.5" cy="119.25" r="88.5"/><path d="M90.5,32.75A86.5,86.5,0,1,1,4,119.25a86.59,86.59,0,0,1,86.5-86.5m0-4a90.5,90.5,0,1,0,90.5,90.5,90.5,90.5,0,0,0-90.5-90.5Z"/><rect class="cls-2" x="30.5" y="77.25" width="96" height="65"/><rect class="cls-2" x="24.5" y="142.25" width="107" height="7" rx="3.5"/><rect class="cls-2" x="24.5" y="70.25" width="107" height="7" rx="3.5"/><path class="cls-2" d="M49,198.75c0-17.68,9.63-32,21.5-32s21.5,14.32,21.5,32"/><path class="cls-2" d="M92,197.75c0-17.68,9.18-32,20.5-32s20.5,14.32,20.5,32"/><circle class="cls-3" cx="70" cy="152.75" r="14"/><circle class="cls-3" cx="113" cy="150.75" r="14"/><line class="cls-2" x1="51" y1="199.75" x2="131" y2="198.75"/><line class="cls-2" x1="83" y1="94.75" x2="112" y2="94.75"/><line class="cls-2" x1="83" y1="107.75" x2="112" y2="107.75"/><path class="cls-4" d="M54.09,123.12a16.5,16.5,0,0,1,0-33"/><line class="cls-5" x1="53.5" y1="90.25" x2="53.5" y2="123.25"/><path class="cls-4" d="M56,105.75,68.52,96.6A15.53,15.53,0,0,0,56,90.25h-.18Z"/><path class="cls-4" d="M56,108.25v15c8.5,0,15.5-6.78,15.5-15a14.72,14.72,0,0,0-2.58-8.3Z"/></svg>
