<svg id="Layer_1" data-name="Layer 1" xmlns="http://www.w3.org/2000/svg" width="123" height="152.01" viewBox="0 0 123 152.01"><defs><style>.cls-1,.cls-3{fill:none;stroke:#fff;stroke-miterlimit:10;}.cls-1{stroke-width:2px;}.cls-2,.cls-4{fill:#fff;}.cls-4{fill-rule:evenodd;}</style></defs><title>Åbningstider</title><circle class="cls-1" cx="61.5" cy="91.51" r="29.5"/><line class="cls-1" x1="62" y1="66.01" x2="62" y2="73.01"/><line class="cls-1" x1="62" y1="111.01" x2="62" y2="118.01"/><line class="cls-1" x1="80" y1="91.01" x2="87" y2="91.01"/><line class="cls-1" x1="36" y1="91.01" x2="43" y2="91.01"/><circle class="cls-2" cx="62" cy="92.01" r="2"/><line class="cls-3" x1="62" y1="90.01" x2="62" y2="75.51"/><line class="cls-3" x1="61" y1="91.01" x2="55.5" y2="85.51"/><line class="cls-1" x1="78.02" y1="116.62" x2="81.98" y2="122.39"/><line class="cls-1" x1="40.94" y1="122.34" x2="45.06" y2="116.68"/><line class="cls-1" x1="77.95" y1="66.34" x2="82.05" y2="60.67"/><line class="cls-1" x1="44.75" y1="66.54" x2="41.25" y2="60.48"/><path class="cls-4" d="M36.87,64c-1.25-2.15-.13-5.13,2.5-6.65s5.77-1,7,1.14"/><path class="cls-4" d="M76.59,58.63c1.18-2.19,4.3-2.79,7-1.35s3.88,4.38,2.7,6.57"/><line class="cls-1" x1="62" y1="57.01" x2="62" y2="62.01"/><line class="cls-1" x1="59" y1="57.01" x2="65" y2="57.01"/><circle class="cls-1" cx="61.5" cy="90.51" r="60.5"/><path class="cls-2" d="M21.51,15.44H18.68l-1.13-2.92H12.4l-1.06,2.92H8.58l5-12.88h2.75Zm-4.79-5.1L14.94,5.56,13.2,10.34Zm0-8.63a1.64,1.64,0,0,1-.5,1.22,1.71,1.71,0,0,1-2.44,0,1.68,1.68,0,0,1-.5-1.22A1.66,1.66,0,0,1,13.73.5a1.73,1.73,0,0,1,2.44,0A1.64,1.64,0,0,1,16.67,1.71Zm-.94,0a.75.75,0,0,0-.22-.55A.79.79,0,0,0,15,.93a.79.79,0,0,0-.78.78A.79.79,0,0,0,15,2.5a.79.79,0,0,0,.56-.23A.76.76,0,0,0,15.73,1.71Z"/><path class="cls-2" d="M22.77,15.44V2.56h2.47V7.2a3.47,3.47,0,0,1,2.7-1.3,3.63,3.63,0,0,1,2.82,1.23,5.11,5.11,0,0,1,1.12,3.55,5.39,5.39,0,0,1-1.14,3.68A3.55,3.55,0,0,1,28,15.65a3.37,3.37,0,0,1-1.58-.4,3.66,3.66,0,0,1-1.34-1.18v1.37Zm2.45-4.87a4.05,4.05,0,0,0,.45,2.15,2,2,0,0,0,1.71,1,1.73,1.73,0,0,0,1.39-.7,3.39,3.39,0,0,0,.58-2.2,3.66,3.66,0,0,0-.58-2.31,1.92,1.92,0,0,0-3,0A3.12,3.12,0,0,0,25.22,10.57Z"/><path class="cls-2" d="M42.36,15.44H39.89V10.68a7.64,7.64,0,0,0-.16-2A1.45,1.45,0,0,0,39.21,8a1.47,1.47,0,0,0-.85-.24,1.93,1.93,0,0,0-1.15.35,1.71,1.71,0,0,0-.7.93,7.86,7.86,0,0,0-.19,2.14v4.23H33.85V6.11h2.29V7.48A3.73,3.73,0,0,1,39.22,5.9a3.81,3.81,0,0,1,1.49.29,2.6,2.6,0,0,1,1,.75,2.75,2.75,0,0,1,.48,1,7.74,7.74,0,0,1,.14,1.66Z"/><path class="cls-2" d="M44.86,4.84V2.56h2.47V4.84Zm0,10.6V6.11h2.47v9.33Z"/><path class="cls-2" d="M58.35,15.44H55.88V10.68a7.19,7.19,0,0,0-.16-2A1.37,1.37,0,0,0,55.21,8a1.5,1.5,0,0,0-.86-.24,2,2,0,0,0-1.15.35,1.76,1.76,0,0,0-.7.93,8.3,8.3,0,0,0-.19,2.14v4.23H49.84V6.11h2.3V7.48A3.71,3.71,0,0,1,55.21,5.9a3.82,3.82,0,0,1,1.5.29,2.56,2.56,0,0,1,1,.75,2.93,2.93,0,0,1,.49,1,7.86,7.86,0,0,1,.13,1.66Z"/><path class="cls-2" d="M60.63,16.06l2.82.34a1,1,0,0,0,.33.68,1.87,1.87,0,0,0,1.1.26,2.89,2.89,0,0,0,1.45-.29,1.26,1.26,0,0,0,.5-.62,4.09,4.09,0,0,0,.11-1.14V13.93a3.34,3.34,0,0,1-2.8,1.51,3.43,3.43,0,0,1-3-1.59,5.37,5.37,0,0,1-.87-3.13,5.14,5.14,0,0,1,1.13-3.58A3.65,3.65,0,0,1,64.24,5.9,3.4,3.4,0,0,1,67.1,7.42V6.11h2.31v8.37A8.36,8.36,0,0,1,69.14,17a3,3,0,0,1-.77,1.29,3.43,3.43,0,0,1-1.31.73,7.13,7.13,0,0,1-2.08.26,5.43,5.43,0,0,1-3.37-.81,2.55,2.55,0,0,1-1-2.06C60.62,16.27,60.62,16.17,60.63,16.06Zm2.2-5.48a3.4,3.4,0,0,0,.58,2.18,1.78,1.78,0,0,0,1.42.69,2,2,0,0,0,1.53-.71,3.06,3.06,0,0,0,.62-2.1,3.32,3.32,0,0,0-.59-2.15,1.91,1.91,0,0,0-1.52-.7,1.81,1.81,0,0,0-1.46.69A3.25,3.25,0,0,0,62.83,10.58Z"/><path class="cls-2" d="M71,12.78l2.48-.38a1.87,1.87,0,0,0,.64,1.1,2.24,2.24,0,0,0,1.36.37,2.49,2.49,0,0,0,1.44-.35.81.81,0,0,0,.32-.66.7.7,0,0,0-.17-.47,2.15,2.15,0,0,0-.83-.32,13.19,13.19,0,0,1-3.79-1.21,2.38,2.38,0,0,1-1.1-2.1,2.58,2.58,0,0,1,1-2,4.48,4.48,0,0,1,3-.82,5.24,5.24,0,0,1,2.85.62,3.18,3.18,0,0,1,1.28,1.85l-2.32.43A1.45,1.45,0,0,0,76.49,8a2.11,2.11,0,0,0-1.19-.29A2.6,2.6,0,0,0,73.9,8a.56.56,0,0,0-.28.5.53.53,0,0,0,.25.44,8.89,8.89,0,0,0,2.3.7,6.78,6.78,0,0,1,2.76,1.1,2.29,2.29,0,0,1,.77,1.83,2.83,2.83,0,0,1-1.07,2.21,4.72,4.72,0,0,1-3.17.92,5.16,5.16,0,0,1-3-.77A3.61,3.61,0,0,1,71,12.78Z"/><path class="cls-2" d="M86.14,6.11v2H84.46v3.76a10.56,10.56,0,0,0,0,1.33.58.58,0,0,0,.22.31.75.75,0,0,0,.42.13,3.12,3.12,0,0,0,1-.24l.22,1.91a4.89,4.89,0,0,1-2,.37,3.09,3.09,0,0,1-1.2-.22,1.76,1.76,0,0,1-.79-.58,2.35,2.35,0,0,1-.34-1A11,11,0,0,1,82,12.15V8.08H80.84v-2H82V4.25l2.48-1.44v3.3Z"/><path class="cls-2" d="M87.86,4.84V2.56h2.47V4.84Zm0,10.6V6.11h2.47v9.33Z"/><path class="cls-2" d="M101.42,15.44h-2.3V14.07a3.76,3.76,0,0,1-1.34,1.19,3.5,3.5,0,0,1-1.57.39,3.57,3.57,0,0,1-2.76-1.29,5.31,5.31,0,0,1-1.15-3.62,5.25,5.25,0,0,1,1.12-3.61A3.66,3.66,0,0,1,96.24,5.9,3.48,3.48,0,0,1,99,7.2V2.56h2.47Zm-6.59-4.87a4.27,4.27,0,0,0,.41,2.17,1.88,1.88,0,0,0,1.67,1A1.82,1.82,0,0,0,98.36,13a3.36,3.36,0,0,0,.6-2.17,3.74,3.74,0,0,0-.58-2.32,1.91,1.91,0,0,0-3,0A3.17,3.17,0,0,0,94.83,10.57Z"/><path class="cls-2" d="M109.26,12.47l2.46.41a4.1,4.1,0,0,1-1.5,2.07,4.41,4.41,0,0,1-2.56.7,4.16,4.16,0,0,1-3.6-1.59,5.3,5.3,0,0,1-.93-3.21,5.17,5.17,0,0,1,1.22-3.64,4,4,0,0,1,3.06-1.31,4.16,4.16,0,0,1,3.29,1.37,6.08,6.08,0,0,1,1.15,4.22h-6.19a2.53,2.53,0,0,0,.6,1.71,1.9,1.9,0,0,0,1.43.61,1.51,1.51,0,0,0,1-.32A2,2,0,0,0,109.26,12.47ZM109.4,10a2.38,2.38,0,0,0-.55-1.63,1.78,1.78,0,0,0-2.62,0,2.25,2.25,0,0,0-.52,1.6Z"/><path class="cls-2" d="M116.23,15.44h-2.47V6.11h2.29V7.44a4.11,4.11,0,0,1,1.06-1.24,2,2,0,0,1,1.07-.3,3.18,3.18,0,0,1,1.63.46L119,8.52a2.18,2.18,0,0,0-1.16-.41,1.39,1.39,0,0,0-.88.29,1.88,1.88,0,0,0-.56,1,14.45,14.45,0,0,0-.21,3.13Z"/></svg>