<svg id="Layer_1" data-name="Layer 1" xmlns="http://www.w3.org/2000/svg" width="128" height="152.41" viewBox="0 0 128 152.41"><defs><style>.cls-1,.cls-3{fill:none;stroke:#fff;stroke-miterlimit:10;}.cls-1{stroke-width:2px;}.cls-2,.cls-4{fill:#fff;}.cls-4{fill-rule:evenodd;}</style></defs><title>åbningstider_ny</title><circle class="cls-1" cx="61.5" cy="91.91" r="29.5"/><line class="cls-1" x1="62" y1="66.41" x2="62" y2="73.41"/><line class="cls-1" x1="62" y1="111.41" x2="62" y2="118.41"/><line class="cls-1" x1="80" y1="91.41" x2="87" y2="91.41"/><line class="cls-1" x1="36" y1="91.41" x2="43" y2="91.41"/><circle class="cls-2" cx="62" cy="92.41" r="2"/><line class="cls-3" x1="62" y1="90.41" x2="62" y2="75.91"/><line class="cls-3" x1="61" y1="91.41" x2="55.5" y2="85.91"/><line class="cls-1" x1="78.02" y1="117.03" x2="81.98" y2="122.8"/><line class="cls-1" x1="40.94" y1="122.74" x2="45.06" y2="117.08"/><line class="cls-1" x1="77.95" y1="66.75" x2="82.05" y2="61.08"/><line class="cls-1" x1="44.75" y1="66.95" x2="41.25" y2="60.88"/><path class="cls-4" d="M36.87,64.37c-1.25-2.15-.13-5.13,2.5-6.65s5.77-1,7,1.14"/><path class="cls-4" d="M76.59,59c1.18-2.19,4.3-2.8,7-1.36s3.88,4.39,2.7,6.57"/><line class="cls-1" x1="62" y1="57.41" x2="62" y2="62.41"/><line class="cls-1" x1="59" y1="57.41" x2="65" y2="57.41"/><circle class="cls-1" cx="61.5" cy="90.91" r="60.5"/><path class="cls-2" d="M24.57,15.76v.16h-1.4l-.81-3.6H17.12l-.79,3.6H14.92v-.14l2.92-12.7h3.74C22.54,7.31,23.58,11.55,24.57,15.76ZM22,10.92,20.59,4.4H18.85l-1.43,6.52ZM18,2.54s-.12-.45-.12-.52a1.92,1.92,0,1,1,3.83,0,3.17,3.17,0,0,1-.19.52h-.83V2.11c0-.81-.38-.94-.9-.94s-.85.13-.85.94a2.32,2.32,0,0,0,0,.43Z"/><path class="cls-2" d="M27.25,3.16v3.9l1.28-.57a7.51,7.51,0,0,1,1.26-.15c2.5,0,3.4,1.14,3.4,3.26v3.17c0,2.38-.86,3.33-3.4,3.33a4.87,4.87,0,0,1-1.44-.2l-1.1-.68v.56l-.14.14H25.85V3.14L26,3h1Zm4.58,6.48c0-1.26-.29-1.93-2-1.93-2.14,0-2.54.25-2.54,2v2.95c0,1.6.42,2,2.54,2,1.51,0,2-.58,2-1.93Z"/><path class="cls-2" d="M42.7,9.49v6.29l-.15.14H41.29V9.49c0-1.33-.37-1.8-2.08-1.8-1.91,0-2.09.76-2.09,1.24v6.85l-.15.14H35.69V6.63l.15-.16H37l.16.16v.59L38,6.61a2.5,2.5,0,0,1,1.21-.3C41.6,6.31,42.7,6.85,42.7,9.49Z"/><path class="cls-2" d="M47,3V4.7l-.14.15H45.43l-.14-.15,0-1.69.16-.16h1.41Zm-.14,12.79-.13.14H45.59l-.14-.14V6.63l.16-.16h1l.18.16Z"/><path class="cls-2" d="M57.08,9.49v6.29l-.14.14H55.68V9.49c0-1.33-.38-1.8-2.09-1.8-1.91,0-2.09.76-2.09,1.24v6.85l-.14.14H50.08V6.63l.14-.16h1.12l.16.16,0,.59.86-.61a2.5,2.5,0,0,1,1.21-.3C56,6.31,57.08,6.85,57.08,9.49Z"/><path class="cls-2" d="M61.31,18v0c.16.78.83.9,1.76.9,1.14,0,2.06-.14,2.06-2.19V15.49L64.05,16a6.84,6.84,0,0,1-1,.11c-2.12,0-3.47-1-3.47-3.42V9.93c0-2.35.9-3.68,3.47-3.57a2.68,2.68,0,0,1,1.32.23s.74.76.74.74v-.7l.16-.14h1.13l.13.14V16.68c0,3-1.71,3.49-3.48,3.49S60,19.65,59.81,18l.15-.14h1.21Zm3.82-9.18c0-.9-.2-1.08-2.06-1.08S61,8.32,61,9.93V12.7c0,1.2.38,2,2.07,2l2.06-.09Z"/><path class="cls-2" d="M74.38,9.13,74.27,9c0-1-.34-1.29-2-1.29s-1.87.74-1.87,1.37c0,.46.15.77,1,1,.38.11.83.2,2.5.67s2,1.31,2,2.36c0,2-.58,3-3.51,3-1.93,0-3.43-.61-3.52-2.88l.11-.11h1.23l.09.11c.14,1,.39,1.51,2.09,1.51,1.94,0,2.12-.29,2.12-1.58,0-.54-.23-1-1.1-1.19s-1.55-.41-2.34-.63c-1.44-.38-2-1-2-2.23,0-1.52.82-2.74,3.29-2.74s3.39.81,3.44,2.66l-.11.13Z"/><path class="cls-2" d="M81.09,15.92a2.15,2.15,0,0,1-2.29-2.45V7.89H77V6.63l.14-.14H78.8V3.14L79,3h1.07l.16.16V6.49h2.05v.77l-.67.63H80.21v5.65c0,.78.45,1,1,1H82.3v1.25l-.15.14Z"/><path class="cls-2" d="M86.24,3V4.7l-.15.15h-1.4l-.15-.15V3l.16-.16h1.4Zm-.15,12.79-.12.14H84.85l-.14-.14V6.63l.16-.16h1l.18.16Z"/><path class="cls-2" d="M95.2,3h1l.18.18V15.92H95.15L95,15.78v-.56l-1.09.68a4.92,4.92,0,0,1-1.44.2c-2.54,0-3.41-1-3.41-3.33V9.6c0-2.12.9-3.26,3.41-3.26a7.51,7.51,0,0,1,1.26.15L95,7.06V3.16Zm-4.77,9.81c0,1.35.52,1.93,2,1.93,2.12,0,2.53-.42,2.53-2V9.73c0-1.77-.55-2-2.53-2-1.75,0-2,.67-2,1.93Z"/><path class="cls-2" d="M105.8,14.5v.88a9,9,0,0,1-3.31.7c-2.12,0-3.53-.84-3.53-3.42V9.71c0-2.52,1.44-3.39,3.53-3.39S106,7.17,106,9.71v2l-.18.14-5.49,0v.84c0,1.48.59,2,2.12,2a17.49,17.49,0,0,0,2.2-.18l1-.11ZM100.39,11l.59-.58h3.64V9.71c0-1.44-.44-2-2.13-2-1.31,0-2.1.2-2.12,2Z"/><path class="cls-2" d="M108.47,15.92V6.63l.14-.14h1.23v.63L111,6.5h1.31v1.4h-1.24c-1.15,0-1.19,0-1.19.52v7.37l-.12.14Z"/></svg>